<svg width="736" height="292" viewBox="0 0 736 292" fill="none" xmlns="http://www.w3.org/2000/svg">
<path d="M19.0278 268.655C-3.87484 163.683 -6.11757 109.162 19.0278 23.8308H724.317C738.57 116.993 738.552 170.611 724.317 268.655H19.0278Z" stroke="black"/>
<path d="M30.9594 262.669C8.68924 165.895 7.99486 114.668 30.9955 29.66C30.9955 29.66 80.66 41.1614 72.695 41.1614C64.7299 41.1614 67.4399 250.368 72.695 250.279C77.6224 250.195 33.6554 261.215 30.9594 262.669C30.9714 262.721 30.9835 262.773 30.9955 262.826C30.7833 262.82 30.7801 262.765 30.9594 262.669Z" fill="black"/>
<path d="M30.9594 262.669C8.68924 165.895 7.99486 114.668 30.9955 29.66C30.9955 29.66 80.66 41.1614 72.695 41.1614C64.7299 41.1614 67.4399 250.368 72.695 250.279C77.6224 250.195 33.6554 261.215 30.9594 262.669C30.9714 262.721 30.9835 262.773 30.9955 262.826C30.7833 262.82 30.7801 262.765 30.9594 262.669Z" fill="url(#paint0_linear)"/>
<path d="M30.9955 29.66C7.98242 114.714 8.69 165.951 30.9955 262.826C27.5918 262.729 77.95 250.189 72.695 250.279C67.4399 250.368 64.7299 41.1614 72.695 41.1614C80.66 41.1614 30.9955 29.66 30.9955 29.66Z" stroke="black"/>
<path d="M53.6113 23.8308L96.296 35.4891" stroke="black"/>
<path d="M96.296 256.997L53.6113 268.655" stroke="black"/>
<path d="M96.296 35.4891L712.742 35.4891" stroke="black"/>
<path d="M712.742 256.997H96.296" stroke="black"/>
<path d="M712.742 35.4891C716.443 128.784 716.371 177.151 712.742 256.997" stroke="black"/>
<path d="M126.076 35.4891V23.8308" stroke="black"/>
<path d="M126.076 268.655V256.997" stroke="black"/>
<path d="M215.416 35.4891V23.8308" stroke="black"/>
<path d="M215.416 268.655V256.997" stroke="black"/>
<path d="M304.756 35.4891V23.8308" stroke="black"/>
<path d="M304.756 268.655V256.997" stroke="black"/>
<path d="M394.096 35.4891V23.8308" stroke="black"/>
<path d="M394.096 268.655V256.997" stroke="black"/>
<path d="M483.436 35.4891V23.8308" stroke="black"/>
<path d="M483.436 268.655V256.997" stroke="black"/>
<path d="M572.776 35.4891V23.8308" stroke="black"/>
<path d="M572.776 268.655V256.997" stroke="black"/>
<path d="M662.116 35.4891V23.8308" stroke="black"/>
<path d="M662.116 268.655V256.997" stroke="black"/>
<path d="M712.742 35.4891L724.654 23.8308" stroke="black"/>
<path d="M724.654 268.655L712.742 256.997" stroke="black"/>
<path d="M65.5233 6.34338L43.6846 13.1441V6.34338L65.5233 1V6.34338Z" fill="black"/>
<path d="M65.5233 6.34338L43.6846 13.1441V6.34338L65.5233 1V6.34338Z" fill="url(#paint1_linear)"/>
<path d="M43.6846 23.3451V13.1441M43.6846 13.1441L65.5233 6.34338V1L43.6846 6.34338V13.1441Z" stroke="black"/>
<path d="M65.5233 285.657L43.6846 278.856V285.657L65.5233 291V285.657Z" fill="black"/>
<path d="M65.5233 285.657L43.6846 278.856V285.657L65.5233 291V285.657Z" fill="url(#paint2_linear)"/>
<path d="M43.6846 268.655V278.856M43.6846 278.856L65.5233 285.657V291L43.6846 285.657V278.856Z" stroke="black"/>
<defs>
<linearGradient id="paint0_linear" x1="73.56" y1="146.243" x2="14" y2="146.243" gradientUnits="userSpaceOnUse">
<stop stop-color="white"/>
<stop offset="1" stop-color="white" stop-opacity="0"/>
</linearGradient>
<linearGradient id="paint1_linear" x1="65.5233" y1="12.1725" x2="43.6846" y2="12.1725" gradientUnits="userSpaceOnUse">
<stop stop-color="white"/>
<stop offset="1" stop-color="white" stop-opacity="0"/>
</linearGradient>
<linearGradient id="paint2_linear" x1="65.5233" y1="279.827" x2="43.6846" y2="279.827" gradientUnits="userSpaceOnUse">
<stop stop-color="white"/>
<stop offset="1" stop-color="white" stop-opacity="0"/>
</linearGradient>
</defs>
</svg>
